<?xml version="1.0" standalone="no"?>
<!DOCTYPE svg PUBLIC "-//W3C//DTD SVG 20010904//EN"
  "http://www.w3.org/TR/2001/REC-SVG-20010904/DTD/svg10.dtd">
<svg version="1.0" xmlns="http://www.w3.org/2000/svg"
     width="600.000000pt" height="600.000000pt" viewBox="0 0 600.000000 600.000000"
     preserveAspectRatio="xMidYMid meet">
  <metadata>
    Created by potrace 1.11, written by Peter Selinger 2001-2013
  </metadata>
  <g transform="translate(0.000000,600.000000) scale(0.100000,-0.100000)"
     fill="#000000" stroke="none">
    <path d="M2350 4861 c0 -5 -34 -67 -77 -138 -114 -191 -422 -713 -445 -753
-11 -19 -35 -60 -53 -90 -45 -75 -283 -478 -345 -584 -14 -23 -131 -221 -260
-439 -129 -219 -243 -411 -253 -428 -10 -18 -186 -316 -392 -664 -206 -348
-383 -649 -394 -668 l-20 -35 732 -2 c403 -1 1328 -3 2057 -5 729 -2 1697 0
2151 3 l826 7 -109 190 c-61 105 -179 309 -263 455 -84 146 -194 337 -245 425
-51 88 -104 180 -118 205 -13 25 -39 70 -57 100 -35 59 -283 489 -320 555 -13
22 -80 139 -150 260 -70 121 -136 235 -146 252 -10 18 -69 119 -130 225 -61
106 -123 212 -136 236 -13 23 -53 93 -89 154 -35 61 -64 115 -64 120 0 34 -45
-33 -197 -298 -95 -164 -196 -341 -225 -392 -87 -152 -77 -148 -131 -54 -26
45 -47 85 -47 89 -1 13 -50 69 -50 56 0 -15 -150 -273 -159 -273 -3 0 -75 118
-159 263 -85 144 -159 271 -165 282 -7 10 -22 37 -35 58 -13 21 -32 55 -44 75
-11 20 -92 161 -180 312 -304 521 -308 527 -308 501z"/>
  </g>
</svg>
